<?xml version="1.0" encoding="UTF-8"?>
<svg id="Ebene_1" xmlns="http://www.w3.org/2000/svg" xmlns:xlink="http://www.w3.org/1999/xlink" version="1.1" viewBox="0 0 252 36">
  <!-- Generator: Adobe Illustrator 29.2.1, SVG Export Plug-In . SVG Version: 2.1.0 Build 116)  -->
  <defs>
    <style>
      .st0, .st1 {
        fill: none;
      }

      .st2 {
        fill: #4285f4;
      }

      .st3 {
        fill: #727272;
      }

      .st4 {
        fill: #fbbc05;
      }

      .st5 {
        isolation: isolate;
      }

      .st6 {
        fill: #34a853;
      }

      .st7 {
        fill: #fff;
      }

      .st8 {
        fill: #eb4335;
      }

      .st1 {
        stroke: #d0d0d0;
      }

      .st9 {
        fill: #e6b613;
      }

      .st10 {
        clip-path: url(#clippath);
      }
    </style>
    <clipPath id="clippath">
      <rect class="st0" x="9.7" y="8.2" width="19.3" height="19.7"/>
    </clipPath>
  </defs>
  <g id="Rectangle_21886">
    <path class="st7" d="M18,0h216c9.9,0,18,8.1,18,18h0c0,9.9-8.1,18-18,18H18C8.1,36,0,27.9,0,18h0C0,8.1,8.1,0,18,0Z"/>
    <path class="st1" d="M18,.5h216c9.7,0,17.5,7.8,17.5,17.5h0c0,9.7-7.8,17.5-17.5,17.5H18C8.3,35.5.5,27.7.5,18h0C.5,8.3,8.3.5,18,.5Z"/>
  </g>
  <g id="Group_22311">
    <path id="ic_grade_24px" class="st9" d="M49.2,22l4.6,2.8-1.2-5.3,4.1-3.6-5.4-.5-2.1-5-2.1,5-5.4.5,4.1,3.6-1.2,5.3,4.6-2.8Z"/>
    <path id="ic_grade_24px-2" class="st9" d="M89.2,22l4.6,2.8-1.2-5.3,4.1-3.6-5.4-.5-2.1-5-2.1,5-5.4.5,4.1,3.6-1.2,5.3,4.6-2.8Z"/>
    <path id="ic_grade_24px-3" class="st9" d="M69.2,22l4.6,2.8-1.2-5.3,4.1-3.6-5.4-.5-2.1-5-2.1,5-5.4.5,4.1,3.6-1.2,5.3,4.6-2.8Z"/>
    <path id="ic_grade_24px-4" class="st9" d="M109.2,22l4.6,2.8-1.2-5.3,4.1-3.6-5.4-.5-2.1-5-2.1,5-5.4.5,4.1,3.6-1.2,5.3,4.6-2.8Z"/>
    <path id="ic_grade_24px-5" class="st9" d="M129.3,22l4.6,2.8-1.2-5.3,4.1-3.6-5.4-.5-2.1-5-2.1,5-5.4.5,4.1,3.6-1.2,5.3,4.6-2.8Z"/>
  </g>
  <g id="Group_22418">
    <g class="st10">
      <g id="Group_22418-2">
        <path id="Path_20703" class="st2" d="M29,18.3c0-.7,0-1.4-.2-2h-9.3v3.7h5.4c-.2,1.3-.9,2.5-2,3.2h0c0,.1,2.9,2.4,2.9,2.4h.2c2-1.9,3-4.5,2.9-7.2"/>
        <path id="Path_20704" class="st6" d="M19.5,27.9c2.4,0,4.7-.8,6.5-2.4l-3.1-2.4c-1,.7-2.2,1-3.4,1-2.6,0-4.8-1.7-5.6-4.1h-.1s-3,2.4-3,2.4h0c1.7,3.4,5.1,5.5,8.8,5.5"/>
        <path id="Path_20705" class="st4" d="M13.9,20c-.2-.6-.3-1.3-.3-1.9,0-.7.1-1.3.3-1.9h0c0-.1-3.1-2.5-3.1-2.5h-.1c-1.4,2.8-1.4,6.1,0,8.9l3.2-2.5"/>
        <path id="Path_20706" class="st8" d="M19.5,12c1.4,0,2.8.5,3.8,1.5l2.8-2.7c-1.8-1.7-4.1-2.6-6.6-2.6-3.7,0-7.1,2.1-8.8,5.4l3.2,2.5c.8-2.4,3.1-4.1,5.6-4.1"/>
      </g>
    </g>
  </g>
  <g id="_4.7_on_Google" class="st5">
    <g class="st5">
      <path class="st3" d="M162,18.9h-3.6v-.8l2.3-4.8h1.1l-2.2,4.6h2.5v-2.4h1v2.4h1.6v1h-1.6v2.1h-1v-2.1Z"/>
      <path class="st3" d="M165.3,20.3c0-.4.3-.8.8-.8s.7.3.7.8-.3.8-.7.8-.8-.4-.8-.8Z"/>
      <path class="st3" d="M168,18.8c0-.8.5-1.5,1.3-1.8-.7-.3-1.1-.9-1.1-1.7,0-1.2,1-2.1,2.5-2.1s2.4.9,2.4,2.1-.4,1.4-1.1,1.7c.8.3,1.2,1,1.2,1.8,0,1.4-1,2.3-2.6,2.3s-2.6-.9-2.6-2.3ZM170.6,20.2c.9,0,1.5-.5,1.5-1.4s-.6-1.4-1.5-1.4-1.6.6-1.6,1.4.6,1.4,1.6,1.4ZM170.6,16.6c.8,0,1.4-.5,1.4-1.3s-.6-1.2-1.4-1.2-1.4.5-1.4,1.2.6,1.3,1.5,1.3Z"/>
      <path class="st3" d="M176.9,18.2c0-1.4,1-2.9,2.8-2.9s2.8,1.5,2.8,2.9-1,2.9-2.8,2.9-2.8-1.5-2.8-2.9ZM179.7,20.2c1.2,0,1.9-.9,1.9-1.9s-.7-1.9-1.9-1.9-1.8.9-1.8,1.9.7,1.9,1.8,1.9Z"/>
      <path class="st3" d="M183.7,15.5h.9v.8c.3-.6.9-.9,1.7-.9,1.3,0,2,.9,2,2.6v3h-1v-3c0-1.1-.4-1.6-1.3-1.6s-1.3.6-1.3,1.6v3h-1v-5.5Z"/>
      <path class="st3" d="M192.3,17.1c0-2.3,1.7-4,4-4s2.6.7,3.3,1.7l-.8.6c-.5-.8-1.4-1.3-2.5-1.3-1.7,0-2.9,1.3-2.9,2.9s1.3,3,2.9,3,2.8-1,2.9-2.4h-3.5v-1h4.6c0,.2,0,.4,0,.5,0,2.2-1.7,3.9-4,3.9s-4-1.7-4-4Z"/>
      <path class="st3" d="M201.1,18.2c0-1.4,1-2.9,2.8-2.9s2.8,1.5,2.8,2.9-1,2.9-2.8,2.9-2.8-1.5-2.8-2.9ZM203.9,20.2c1.2,0,1.9-.9,1.9-1.9s-.7-1.9-1.9-1.9-1.8.9-1.8,1.9.7,1.9,1.8,1.9Z"/>
      <path class="st3" d="M207.6,18.2c0-1.4,1-2.9,2.8-2.9s2.8,1.5,2.8,2.9-1,2.9-2.8,2.9-2.8-1.5-2.8-2.9ZM210.4,20.2c1.2,0,1.9-.9,1.9-1.9s-.7-1.9-1.9-1.9-1.8.9-1.8,1.9.7,1.9,1.8,1.9Z"/>
      <path class="st3" d="M214.4,21.4l.8-.4c.3.6.8,1,1.7,1s1.7-.5,1.7-1.9v-.9c-.3.7-1,1.2-2,1.2-1.6,0-2.5-1.3-2.5-2.5s.8-2.6,2.5-2.6,1.6.5,2,1.2v-1.1h1v4.6c0,1.9-1,2.9-2.6,2.9s-2.2-.6-2.6-1.6ZM216.8,19.6c1.1,0,1.7-.8,1.7-1.6s-.6-1.7-1.7-1.7-1.7.8-1.7,1.6.6,1.7,1.7,1.7Z"/>
      <path class="st3" d="M220.9,13.3h1v7.7h-1v-7.7Z"/>
      <path class="st3" d="M223.1,18.2c0-1.5,1.1-2.8,2.8-2.8s3,1.5,2.8,3.2h-4.6c.1.9.9,1.6,1.8,1.6s1.2-.3,1.6-.8l.8.5c-.5.7-1.3,1.2-2.4,1.2-1.6,0-2.9-1.2-2.9-2.9ZM227.7,17.7c-.2-.8-.8-1.3-1.7-1.3s-1.6.6-1.8,1.3h3.5Z"/>
    </g>
  </g>
</svg>