<svg width="1512" height="1252" viewBox="0 0 1512 1252" fill="none" xmlns="http://www.w3.org/2000/svg">
<g clip-path="url(#clip0_1002_44614)">
<g opacity="0.26">
<mask id="mask0_1002_44614" style="mask-type:alpha" maskUnits="userSpaceOnUse" x="-440" y="0" width="2489" height="1447">
<rect x="-439.594" width="2488.18" height="1447" fill="#D9D9D9"/>
</mask>
<g mask="url(#mask0_1002_44614)">
<path d="M2845.79 1341.63H-1241.07L801 -87.7031H803.447L2845.79 1341.63ZM-1230.73 1338.5H2835.45L802.904 -84.1797H801.816L-1230.73 1338.5Z" fill="url(#paint0_linear_1002_44614)"/>
<path d="M934.528 4.6875H669.922V8.21089H934.528V4.6875Z" fill="url(#paint1_linear_1002_44614)"/>
<path d="M1000.61 50.5H604.379V54.0235H1000.61V50.5Z" fill="url(#paint2_linear_1002_44614)"/>
<path d="M1066.15 96.6953H538.57V100.219H1066.15V96.6953Z" fill="url(#paint3_linear_1002_44614)"/>
<path d="M1131.69 142.492H472.758V146.016H1131.69V142.492Z" fill="url(#paint4_linear_1002_44614)"/>
<path d="M1197.77 188.703H407.215V192.227H1197.77V188.703Z" fill="url(#paint5_linear_1002_44614)"/>
<path d="M1263.31 234.5H341.406V238.024H1263.31V234.5Z" fill="url(#paint6_linear_1002_44614)"/>
<path d="M1328.86 280.695H275.598V284.219H1328.86V280.695Z" fill="url(#paint7_linear_1002_44614)"/>
<path d="M1394.94 326.492H210.055V330.016H1394.94V326.492Z" fill="url(#paint8_linear_1002_44614)"/>
<path d="M1460.48 372.703H144.242V376.227H1460.48V372.703Z" fill="url(#paint9_linear_1002_44614)"/>
<path d="M1526.02 418.508H78.4336V422.031H1526.02V418.508Z" fill="url(#paint10_linear_1002_44614)"/>
<path d="M1592.1 464.688H12.8945V468.211H1592.1V464.688Z" fill="url(#paint11_linear_1002_44614)"/>
<path d="M1657.64 510.5H-52.9219V514.024H1657.64V510.5Z" fill="url(#paint12_linear_1002_44614)"/>
<path d="M1723.18 556.703H-118.73V560.227H1723.18V556.703Z" fill="url(#paint13_linear_1002_44614)"/>
<path d="M1789.26 602.516H-184.277V606.039H1789.26V602.516Z" fill="url(#paint14_linear_1002_44614)"/>
<path d="M1854.8 648.297H-250.082V651.82H1854.8V648.297Z" fill="url(#paint15_linear_1002_44614)"/>
<path d="M1920.34 694.484H-315.895V698.008H1920.34V694.484Z" fill="url(#paint16_linear_1002_44614)"/>
<path d="M1986.42 740.305H-381.438V743.828H1986.42V740.305Z" fill="url(#paint17_linear_1002_44614)"/>
<path d="M2051.97 786.484H-447.246V790.008H2051.97V786.484Z" fill="url(#paint18_linear_1002_44614)"/>
<path d="M2117.51 832.297H-513.055V835.82H2117.51V832.297Z" fill="url(#paint19_linear_1002_44614)"/>
<path d="M2183.59 878.508H-578.602V882.031H2183.59V878.508Z" fill="url(#paint20_linear_1002_44614)"/>
<path d="M2249.13 924.297H-644.406V927.82H2249.13V924.297Z" fill="url(#paint21_linear_1002_44614)"/>
<path d="M2314.67 970.5H-710.219V974.024H2314.67V970.5Z" fill="url(#paint22_linear_1002_44614)"/>
<path d="M2380.75 1016.3H-775.762V1019.83H2380.75V1016.3Z" fill="url(#paint23_linear_1002_44614)"/>
<path d="M2446.3 1062.51H-841.57V1066.03H2446.3V1062.51Z" fill="url(#paint24_linear_1002_44614)"/>
<path d="M2511.83 1108.29H-907.383V1111.81H2511.83V1108.29Z" fill="url(#paint25_linear_1002_44614)"/>
<path d="M2577.92 1154.48H-972.926V1158.01H2577.92V1154.48Z" fill="url(#paint26_linear_1002_44614)"/>
<path d="M2643.46 1200.3H-1038.73V1203.82H2643.46V1200.3Z" fill="url(#paint27_linear_1002_44614)"/>
<path d="M2709 1246.48H-1104.55V1250.01H2709V1246.48Z" fill="url(#paint28_linear_1002_44614)"/>
<path d="M2708.45 1341.64L802.359 -84.165L803.991 -87.2969L2709.81 1338.51L2708.45 1341.64Z" fill="url(#paint29_linear_1002_44614)"/>
<path d="M2576.83 1341.64L802.359 -84.5565L803.991 -87.2969L2578.46 1338.9L2576.83 1341.64Z" fill="url(#paint30_linear_1002_44614)"/>
<path d="M2445.2 1341.64L802.359 -84.5565L803.719 -87.2969L2446.84 1338.9L2445.2 1341.64Z" fill="url(#paint31_linear_1002_44614)"/>
<path d="M2313.86 1341.63L802.09 -84.573L803.722 -86.9219L2315.49 1338.89L2313.86 1341.63Z" fill="url(#paint32_linear_1002_44614)"/>
<path d="M2182.23 1341.24L802.09 -84.573L803.722 -86.9219L2183.86 1338.89L2182.23 1341.24Z" fill="url(#paint33_linear_1002_44614)"/>
<path d="M2050.61 1341.24L802.09 -84.573L803.722 -86.9219L2052.51 1338.89L2050.61 1341.24Z" fill="url(#paint34_linear_1002_44614)"/>
<path d="M1919.26 1341.24L801.816 -84.573L803.72 -86.9219L1921.16 1338.89L1919.26 1341.24Z" fill="url(#paint35_linear_1002_44614)"/>
<path d="M1787.63 1341.24L801.816 -84.573L803.72 -86.9219L1789.54 1338.89L1787.63 1341.24Z" fill="url(#paint36_linear_1002_44614)"/>
<path d="M1656.01 1341.24L801.543 -84.9644L803.719 -86.9219L1658.18 1339.28L1656.01 1341.24Z" fill="url(#paint37_linear_1002_44614)"/>
<path d="M1524.38 1340.85L801.543 -84.9574L803.719 -86.5234L1526.83 1339.29L1524.38 1340.85Z" fill="url(#paint38_linear_1002_44614)"/>
<path d="M1392.76 1340.85L801.27 -84.9574L803.717 -86.5234L1395.21 1339.29L1392.76 1340.85Z" fill="url(#paint39_linear_1002_44614)"/>
<path d="M1261.41 1340.85L801.27 -85.3489L803.717 -86.5234L1263.86 1339.68L1261.41 1340.85Z" fill="url(#paint40_linear_1002_44614)"/>
<path d="M1129.78 1340.44L801.27 -85.3732L803.717 -86.1562L1132.5 1339.65L1129.78 1340.44Z" fill="url(#paint41_linear_1002_44614)"/>
<path d="M998.167 1340.44L801.004 -85.3732L803.723 -86.1562L1000.89 1339.65L998.167 1340.44Z" fill="url(#paint42_linear_1002_44614)"/>
<path d="M866.815 1340.05L801.004 -85.7578H803.723L869.535 1340.05H866.815Z" fill="url(#paint43_linear_1002_44614)"/>
<path d="M737.907 1340.05H735.188L800.999 -85.7578H803.719L737.907 1340.05Z" fill="url(#paint44_linear_1002_44614)"/>
<path d="M606.559 1340.44L603.84 1339.65L801.003 -86.1562L803.722 -85.3732L606.559 1340.44Z" fill="url(#paint45_linear_1002_44614)"/>
<path d="M474.934 1340.44L472.215 1339.65L801.001 -86.1562L803.449 -85.3732L474.934 1340.44Z" fill="url(#paint46_linear_1002_44614)"/>
<path d="M343.311 1340.85L340.863 1339.68L801.001 -86.5234L803.449 -85.3489L343.311 1340.85Z" fill="url(#paint47_linear_1002_44614)"/>
<path d="M211.69 1340.85L209.242 1339.29L801.004 -86.5234L803.179 -84.9574L211.69 1340.85Z" fill="url(#paint48_linear_1002_44614)"/>
<path d="M80.3343 1340.85L77.8867 1339.29L801 -86.5234L803.175 -84.9574L80.3343 1340.85Z" fill="url(#paint49_linear_1002_44614)"/>
<path d="M-51.2893 1341.24L-53.4648 1339.28L801 -86.9219L803.175 -84.9644L-51.2893 1341.24Z" fill="url(#paint50_linear_1002_44614)"/>
<path d="M-182.918 1341.24L-185.094 1338.89L800.994 -86.9219L802.898 -84.573L-182.918 1341.24Z" fill="url(#paint51_linear_1002_44614)"/>
<path d="M-314.534 1341.24L-316.438 1338.89L801.002 -86.9219L802.905 -84.573L-314.534 1341.24Z" fill="url(#paint52_linear_1002_44614)"/>
<path d="M-445.885 1341.24L-447.789 1338.89L800.73 -86.9219L802.633 -84.573L-445.885 1341.24Z" fill="url(#paint53_linear_1002_44614)"/>
<path d="M-577.514 1341.24L-579.418 1338.89L800.724 -86.9219L802.628 -84.573L-577.514 1341.24Z" fill="url(#paint54_linear_1002_44614)"/>
<path d="M-709.138 1341.63L-710.77 1338.89L800.724 -86.9219L802.627 -84.573L-709.138 1341.63Z" fill="url(#paint55_linear_1002_44614)"/>
<path d="M-840.757 1341.64L-842.117 1338.9L800.728 -87.2969L802.36 -84.5565L-840.757 1341.64Z" fill="url(#paint56_linear_1002_44614)"/>
<path d="M-972.107 1341.64L-973.738 1338.9L800.73 -87.2969L802.362 -84.5565L-972.107 1341.64Z" fill="url(#paint57_linear_1002_44614)"/>
<path d="M-1103.73 1341.64L-1105.09 1338.51L800.73 -87.2969L802.089 -84.165L-1103.73 1341.64Z" fill="url(#paint58_linear_1002_44614)"/>
</g>
</g>
</g>
<defs>
<linearGradient id="paint0_linear_1002_44614" x1="804.141" y1="235789" x2="804.141" y2="584532" gradientUnits="userSpaceOnUse">
<stop stop-color="#191928"/>
<stop offset="0.9888" stop-color="white" stop-opacity="0"/>
</linearGradient>
<linearGradient id="paint1_linear_1002_44614" x1="802.34" y1="586.139" x2="802.34" y2="1445.81" gradientUnits="userSpaceOnUse">
<stop stop-color="#191928"/>
<stop offset="0.9888" stop-color="white" stop-opacity="0"/>
</linearGradient>
<linearGradient id="paint2_linear_1002_44614" x1="802.667" y1="631.971" x2="802.667" y2="1491.67" gradientUnits="userSpaceOnUse">
<stop stop-color="#191928"/>
<stop offset="0.9888" stop-color="white" stop-opacity="0"/>
</linearGradient>
<linearGradient id="paint3_linear_1002_44614" x1="802.591" y1="678.147" x2="802.591" y2="1537.82" gradientUnits="userSpaceOnUse">
<stop stop-color="#191928"/>
<stop offset="0.9888" stop-color="white" stop-opacity="0"/>
</linearGradient>
<linearGradient id="paint4_linear_1002_44614" x1="802.511" y1="723.963" x2="802.511" y2="1583.66" gradientUnits="userSpaceOnUse">
<stop stop-color="#191928"/>
<stop offset="0.9888" stop-color="white" stop-opacity="0"/>
</linearGradient>
<linearGradient id="paint5_linear_1002_44614" x1="802.838" y1="770.155" x2="802.838" y2="1629.83" gradientUnits="userSpaceOnUse">
<stop stop-color="#191928"/>
<stop offset="0.9888" stop-color="white" stop-opacity="0"/>
</linearGradient>
<linearGradient id="paint6_linear_1002_44614" x1="802.762" y1="815.971" x2="802.762" y2="1675.67" gradientUnits="userSpaceOnUse">
<stop stop-color="#191928"/>
<stop offset="0.9888" stop-color="white" stop-opacity="0"/>
</linearGradient>
<linearGradient id="paint7_linear_1002_44614" x1="802.686" y1="862.147" x2="802.686" y2="1721.82" gradientUnits="userSpaceOnUse">
<stop stop-color="#191928"/>
<stop offset="0.9888" stop-color="white" stop-opacity="0"/>
</linearGradient>
<linearGradient id="paint8_linear_1002_44614" x1="803.012" y1="907.963" x2="803.012" y2="1767.66" gradientUnits="userSpaceOnUse">
<stop stop-color="#191928"/>
<stop offset="0.9888" stop-color="white" stop-opacity="0"/>
</linearGradient>
<linearGradient id="paint9_linear_1002_44614" x1="802.933" y1="954.155" x2="802.933" y2="1813.83" gradientUnits="userSpaceOnUse">
<stop stop-color="#191928"/>
<stop offset="0.9888" stop-color="white" stop-opacity="0"/>
</linearGradient>
<linearGradient id="paint10_linear_1002_44614" x1="802.857" y1="999.979" x2="802.857" y2="1859.68" gradientUnits="userSpaceOnUse">
<stop stop-color="#191928"/>
<stop offset="0.9888" stop-color="white" stop-opacity="0"/>
</linearGradient>
<linearGradient id="paint11_linear_1002_44614" x1="803.187" y1="1046.14" x2="803.187" y2="1905.81" gradientUnits="userSpaceOnUse">
<stop stop-color="#191928"/>
<stop offset="0.9888" stop-color="white" stop-opacity="0"/>
</linearGradient>
<linearGradient id="paint12_linear_1002_44614" x1="803.104" y1="1091.97" x2="803.104" y2="1951.67" gradientUnits="userSpaceOnUse">
<stop stop-color="#191928"/>
<stop offset="0.9888" stop-color="white" stop-opacity="0"/>
</linearGradient>
<linearGradient id="paint13_linear_1002_44614" x1="803.028" y1="1138.17" x2="803.028" y2="1997.87" gradientUnits="userSpaceOnUse">
<stop stop-color="#191928"/>
<stop offset="0.9888" stop-color="white" stop-opacity="0"/>
</linearGradient>
<linearGradient id="paint14_linear_1002_44614" x1="803.35" y1="1183.99" x2="803.35" y2="2043.69" gradientUnits="userSpaceOnUse">
<stop stop-color="#191928"/>
<stop offset="0.9888" stop-color="white" stop-opacity="0"/>
</linearGradient>
<linearGradient id="paint15_linear_1002_44614" x1="803.278" y1="1229.77" x2="803.278" y2="2089.47" gradientUnits="userSpaceOnUse">
<stop stop-color="#191928"/>
<stop offset="0.9888" stop-color="white" stop-opacity="0"/>
</linearGradient>
<linearGradient id="paint16_linear_1002_44614" x1="803.199" y1="1275.96" x2="803.199" y2="2135.66" gradientUnits="userSpaceOnUse">
<stop stop-color="#191928"/>
<stop offset="0.9888" stop-color="white" stop-opacity="0"/>
</linearGradient>
<linearGradient id="paint17_linear_1002_44614" x1="803.525" y1="1321.78" x2="803.525" y2="2181.48" gradientUnits="userSpaceOnUse">
<stop stop-color="#191928"/>
<stop offset="0.9888" stop-color="white" stop-opacity="0"/>
</linearGradient>
<linearGradient id="paint18_linear_1002_44614" x1="803.449" y1="1367.96" x2="803.449" y2="2227.66" gradientUnits="userSpaceOnUse">
<stop stop-color="#191928"/>
<stop offset="0.9888" stop-color="white" stop-opacity="0"/>
</linearGradient>
<linearGradient id="paint19_linear_1002_44614" x1="803.374" y1="1413.77" x2="803.374" y2="2273.47" gradientUnits="userSpaceOnUse">
<stop stop-color="#191928"/>
<stop offset="0.9888" stop-color="white" stop-opacity="0"/>
</linearGradient>
<linearGradient id="paint20_linear_1002_44614" x1="803.696" y1="1459.98" x2="803.696" y2="2319.68" gradientUnits="userSpaceOnUse">
<stop stop-color="#191928"/>
<stop offset="0.9888" stop-color="white" stop-opacity="0"/>
</linearGradient>
<linearGradient id="paint21_linear_1002_44614" x1="803.624" y1="1505.77" x2="803.624" y2="2365.47" gradientUnits="userSpaceOnUse">
<stop stop-color="#191928"/>
<stop offset="0.9888" stop-color="white" stop-opacity="0"/>
</linearGradient>
<linearGradient id="paint22_linear_1002_44614" x1="803.545" y1="1551.97" x2="803.545" y2="2411.67" gradientUnits="userSpaceOnUse">
<stop stop-color="#191928"/>
<stop offset="0.9888" stop-color="white" stop-opacity="0"/>
</linearGradient>
<linearGradient id="paint23_linear_1002_44614" x1="803.871" y1="1597.78" x2="803.871" y2="2457.48" gradientUnits="userSpaceOnUse">
<stop stop-color="#191928"/>
<stop offset="0.9888" stop-color="white" stop-opacity="0"/>
</linearGradient>
<linearGradient id="paint24_linear_1002_44614" x1="803.795" y1="1643.98" x2="803.795" y2="2503.68" gradientUnits="userSpaceOnUse">
<stop stop-color="#191928"/>
<stop offset="0.9888" stop-color="white" stop-opacity="0"/>
</linearGradient>
<linearGradient id="paint25_linear_1002_44614" x1="803.716" y1="1689.76" x2="803.716" y2="2549.46" gradientUnits="userSpaceOnUse">
<stop stop-color="#191928"/>
<stop offset="0.9888" stop-color="white" stop-opacity="0"/>
</linearGradient>
<linearGradient id="paint26_linear_1002_44614" x1="804.042" y1="1735.96" x2="804.042" y2="2595.66" gradientUnits="userSpaceOnUse">
<stop stop-color="#191928"/>
<stop offset="0.9888" stop-color="white" stop-opacity="0"/>
</linearGradient>
<linearGradient id="paint27_linear_1002_44614" x1="803.966" y1="1781.77" x2="803.966" y2="2641.47" gradientUnits="userSpaceOnUse">
<stop stop-color="#191928"/>
<stop offset="0.9888" stop-color="white" stop-opacity="0"/>
</linearGradient>
<linearGradient id="paint28_linear_1002_44614" x1="803.887" y1="1827.96" x2="803.887" y2="2687.66" gradientUnits="userSpaceOnUse">
<stop stop-color="#191928"/>
<stop offset="0.9888" stop-color="white" stop-opacity="0"/>
</linearGradient>
<linearGradient id="paint29_linear_1002_44614" x1="1756.92" y1="235725" x2="1756.92" y2="584372" gradientUnits="userSpaceOnUse">
<stop stop-color="#191928"/>
<stop offset="0.9888" stop-color="white" stop-opacity="0"/>
</linearGradient>
<linearGradient id="paint30_linear_1002_44614" x1="1691.18" y1="235725" x2="1691.18" y2="584372" gradientUnits="userSpaceOnUse">
<stop stop-color="#191928"/>
<stop offset="0.9888" stop-color="white" stop-opacity="0"/>
</linearGradient>
<linearGradient id="paint31_linear_1002_44614" x1="1625.31" y1="235725" x2="1625.31" y2="584372" gradientUnits="userSpaceOnUse">
<stop stop-color="#191928"/>
<stop offset="0.9888" stop-color="white" stop-opacity="0"/>
</linearGradient>
<linearGradient id="paint32_linear_1002_44614" x1="1559.45" y1="235661" x2="1559.45" y2="584212" gradientUnits="userSpaceOnUse">
<stop stop-color="#191928"/>
<stop offset="0.9888" stop-color="white" stop-opacity="0"/>
</linearGradient>
<linearGradient id="paint33_linear_1002_44614" x1="1493.58" y1="235596" x2="1493.58" y2="584052" gradientUnits="userSpaceOnUse">
<stop stop-color="#191928"/>
<stop offset="0.9888" stop-color="white" stop-opacity="0"/>
</linearGradient>
<linearGradient id="paint34_linear_1002_44614" x1="1427.85" y1="235596" x2="1427.85" y2="584052" gradientUnits="userSpaceOnUse">
<stop stop-color="#191928"/>
<stop offset="0.9888" stop-color="white" stop-opacity="0"/>
</linearGradient>
<linearGradient id="paint35_linear_1002_44614" x1="1361.98" y1="235596" x2="1361.98" y2="584052" gradientUnits="userSpaceOnUse">
<stop stop-color="#191928"/>
<stop offset="0.9888" stop-color="white" stop-opacity="0"/>
</linearGradient>
<linearGradient id="paint36_linear_1002_44614" x1="1296.11" y1="235596" x2="1296.11" y2="584052" gradientUnits="userSpaceOnUse">
<stop stop-color="#191928"/>
<stop offset="0.9888" stop-color="white" stop-opacity="0"/>
</linearGradient>
<linearGradient id="paint37_linear_1002_44614" x1="1230.24" y1="235596" x2="1230.24" y2="584052" gradientUnits="userSpaceOnUse">
<stop stop-color="#191928"/>
<stop offset="0.9888" stop-color="white" stop-opacity="0"/>
</linearGradient>
<linearGradient id="paint38_linear_1002_44614" x1="1164.5" y1="235468" x2="1164.5" y2="583732" gradientUnits="userSpaceOnUse">
<stop stop-color="#191928"/>
<stop offset="0.9888" stop-color="white" stop-opacity="0"/>
</linearGradient>
<linearGradient id="paint39_linear_1002_44614" x1="1098.5" y1="235468" x2="1098.5" y2="583732" gradientUnits="userSpaceOnUse">
<stop stop-color="#191928"/>
<stop offset="0.9888" stop-color="white" stop-opacity="0"/>
</linearGradient>
<linearGradient id="paint40_linear_1002_44614" x1="1032.76" y1="235468" x2="1032.76" y2="583732" gradientUnits="userSpaceOnUse">
<stop stop-color="#191928"/>
<stop offset="0.9888" stop-color="white" stop-opacity="0"/>
</linearGradient>
<linearGradient id="paint41_linear_1002_44614" x1="967.031" y1="235339" x2="967.031" y2="583413" gradientUnits="userSpaceOnUse">
<stop stop-color="#191928"/>
<stop offset="0.9888" stop-color="white" stop-opacity="0"/>
</linearGradient>
<linearGradient id="paint42_linear_1002_44614" x1="901.032" y1="235339" x2="901.032" y2="583413" gradientUnits="userSpaceOnUse">
<stop stop-color="#191928"/>
<stop offset="0.9888" stop-color="white" stop-opacity="0"/>
</linearGradient>
<linearGradient id="paint43_linear_1002_44614" x1="835.299" y1="235210" x2="835.299" y2="583092" gradientUnits="userSpaceOnUse">
<stop stop-color="#191928"/>
<stop offset="0.9888" stop-color="white" stop-opacity="0"/>
</linearGradient>
<linearGradient id="paint44_linear_1002_44614" x1="769.483" y1="235210" x2="769.483" y2="583092" gradientUnits="userSpaceOnUse">
<stop stop-color="#191928"/>
<stop offset="0.9888" stop-color="white" stop-opacity="0"/>
</linearGradient>
<linearGradient id="paint45_linear_1002_44614" x1="703.868" y1="235339" x2="703.868" y2="583413" gradientUnits="userSpaceOnUse">
<stop stop-color="#191928"/>
<stop offset="0.9888" stop-color="white" stop-opacity="0"/>
</linearGradient>
<linearGradient id="paint46_linear_1002_44614" x1="637.976" y1="235339" x2="637.976" y2="583413" gradientUnits="userSpaceOnUse">
<stop stop-color="#191928"/>
<stop offset="0.9888" stop-color="white" stop-opacity="0"/>
</linearGradient>
<linearGradient id="paint47_linear_1002_44614" x1="572.358" y1="235468" x2="572.358" y2="583732" gradientUnits="userSpaceOnUse">
<stop stop-color="#191928"/>
<stop offset="0.9888" stop-color="white" stop-opacity="0"/>
</linearGradient>
<linearGradient id="paint48_linear_1002_44614" x1="506.47" y1="235468" x2="506.47" y2="583732" gradientUnits="userSpaceOnUse">
<stop stop-color="#191928"/>
<stop offset="0.9888" stop-color="white" stop-opacity="0"/>
</linearGradient>
<linearGradient id="paint49_linear_1002_44614" x1="440.847" y1="235468" x2="440.847" y2="583732" gradientUnits="userSpaceOnUse">
<stop stop-color="#191928"/>
<stop offset="0.9888" stop-color="white" stop-opacity="0"/>
</linearGradient>
<linearGradient id="paint50_linear_1002_44614" x1="375.228" y1="235596" x2="375.228" y2="584052" gradientUnits="userSpaceOnUse">
<stop stop-color="#191928"/>
<stop offset="0.9888" stop-color="white" stop-opacity="0"/>
</linearGradient>
<linearGradient id="paint51_linear_1002_44614" x1="309.332" y1="235596" x2="309.332" y2="584052" gradientUnits="userSpaceOnUse">
<stop stop-color="#191928"/>
<stop offset="0.9888" stop-color="white" stop-opacity="0"/>
</linearGradient>
<linearGradient id="paint52_linear_1002_44614" x1="243.722" y1="235596" x2="243.722" y2="584052" gradientUnits="userSpaceOnUse">
<stop stop-color="#191928"/>
<stop offset="0.9888" stop-color="white" stop-opacity="0"/>
</linearGradient>
<linearGradient id="paint53_linear_1002_44614" x1="177.967" y1="235596" x2="177.967" y2="584052" gradientUnits="userSpaceOnUse">
<stop stop-color="#191928"/>
<stop offset="0.9888" stop-color="white" stop-opacity="0"/>
</linearGradient>
<linearGradient id="paint54_linear_1002_44614" x1="112.207" y1="235596" x2="112.207" y2="584052" gradientUnits="userSpaceOnUse">
<stop stop-color="#191928"/>
<stop offset="0.9888" stop-color="white" stop-opacity="0"/>
</linearGradient>
<linearGradient id="paint55_linear_1002_44614" x1="46.5884" y1="235661" x2="46.5884" y2="584212" gradientUnits="userSpaceOnUse">
<stop stop-color="#191928"/>
<stop offset="0.9888" stop-color="white" stop-opacity="0"/>
</linearGradient>
<linearGradient id="paint56_linear_1002_44614" x1="-19.1622" y1="235725" x2="-19.1622" y2="584372" gradientUnits="userSpaceOnUse">
<stop stop-color="#191928"/>
<stop offset="0.9888" stop-color="white" stop-opacity="0"/>
</linearGradient>
<linearGradient id="paint57_linear_1002_44614" x1="-84.9142" y1="235725" x2="-84.9142" y2="584372" gradientUnits="userSpaceOnUse">
<stop stop-color="#191928"/>
<stop offset="0.9888" stop-color="white" stop-opacity="0"/>
</linearGradient>
<linearGradient id="paint58_linear_1002_44614" x1="-150.669" y1="235725" x2="-150.669" y2="584372" gradientUnits="userSpaceOnUse">
<stop stop-color="#191928"/>
<stop offset="0.9888" stop-color="white" stop-opacity="0"/>
</linearGradient>
<clipPath id="clip0_1002_44614">
<rect width="1512" height="1272" fill="white"/>
</clipPath>
</defs>
</svg>
